<?xml version="1.0" ?><svg id="Layer_1" style="enable-background:new 0 0 64 64;" version="1.1" viewBox="0 0 64 64" xml:space="preserve" xmlns="http://www.w3.org/2000/svg" xmlns:xlink="http://www.w3.org/1999/xlink"><style type="text/css">
	.st0{fill:#62BEE7;}
	.st1{fill:#474E5E;}
	.st2{fill:#F3EEE4;}
	.st3{fill:#FFFFFF;}
	.st4{fill:#E8DCCA;}
	.st5{opacity:0.1;fill:#231F20;}
	.st6{fill:#506268;}
	.st7{fill:#EB5151;}
	.st8{fill:#C64444;}
	.st9{fill:#9CCB5B;}
	.st10{fill:#404A4C;}
	.st11{fill:#676767;}
	.st12{fill:#E0E1E5;}
	.st13{fill:#9D9EA0;}
	.st14{fill:#B3B4B7;}
	.st15{opacity:0.1;}
	.st16{fill:#231F20;}
	.st17{fill:#FACC20;}
	.st18{fill:#FDEF34;}
	.st19{fill:#F7A90B;}
	.st20{fill:#20B8EA;}
	.st21{fill:#00A8EA;}
	.st22{fill:#33D3F4;}
	.st23{opacity:0.25;fill:#FFFFFF;}
	.st24{fill:#CACBCE;}
	.st25{fill:#2E3545;}
	.st26{fill:#8DAF4A;}
	.st27{fill:#F9C2AF;}
	.st28{fill:#AFDDF4;}
	.st29{fill:#677177;}
	.st30{fill:#FFEDB3;}
	.st31{fill:#695652;}
	.st32{fill:#30A7BF;}
	.st33{fill:#4D5556;}
	.st34{opacity:0.35;}
	.st35{fill:#FFCB04;}
	.st36{fill:#99E9FA;}
	.st37{opacity:0.2;}
	.st38{opacity:3.000000e-02;}
	.st39{fill:#9ECA5B;}
	.st40{fill:#98BA56;}
	.st41{fill:#40EEFF;}
	.st42{fill:#FF6A52;}
	.st43{opacity:0.1;fill:#FFFFFF;}
	.st44{opacity:0.4;}
	.st45{fill:#57606D;}
	.st46{fill:#BACA5B;}
	.st47{opacity:0.25;}
	.st48{opacity:5.000000e-02;fill:#231F20;}
	.st49{opacity:0.2;fill:#FFFFFF;}
	.st50{opacity:0.3;}
	.st51{fill:#FFD82F;}
	.st52{fill:#F4C121;}
	.st53{fill:#EF9D0A;}
	.st54{fill:#F9E532;}
	.st55{fill:#F4C01E;}
	.st56{fill:#FFE14D;}
	.st57{fill:#B7C156;}
	.st58{fill:#DBA92C;}
	.st59{fill:#363D4D;}
	.st60{fill:#3F4656;}
	.st61{fill:#463E33;}
	.st62{fill:none;}
	.st63{opacity:4.000000e-02;}
	.st64{fill:#4DB6AC;}
	.st65{fill:#CADE49;}
	.st66{fill:#9FD343;}
	.st67{fill:#AAD643;}
	.st68{fill:#82C736;}
	.st69{opacity:0.3;fill:#FFFFFF;}
	.st70{fill:#FFD640;}
	.st71{opacity:0.5;}
	.st72{opacity:0.6;}
</style><g><circle class="st7" cx="32" cy="32" r="32"/><g><circle class="st17" cx="32" cy="32" r="24"/><path class="st18" d="M44.8,21.9L43,22.5l-1.4,4.1l-1.4-4.1l-4.1-1.4l4.1-1.4l0.5-1.5c-2.5-1.6-5.6-2.6-8.8-2.6    c-9,0-16.3,7.3-16.3,16.3S23,48.3,32,48.3S48.3,41,48.3,32C48.3,28.2,46.9,24.7,44.8,21.9z"/><path class="st5" d="M37.8,34.3c-0.2-0.6-1-2.5-5-3.3v-4.9c1,0.3,1.6,1,1.9,2c0.2,0.8,0.7,1.2,1.5,1.2c0.4,0,2.9-0.7,0.4-3.9    c-0.4-0.5-1.2-1.4-3.7-1.7v-2h-1.5v2c-4.6,0.5-5,3.5-5,4.8c0,4,4,4.8,5,5.1v5.5c-1.9-0.5-2.3-2.4-2.5-3.1c-0.3-0.9-1.1-1-1.4-1    c-1.2,0.1-1.5,1.1-1.5,1.5c0,0.5,0.3,2.9,3.1,4.3c0.7,0.4,1.5,0.6,2.4,0.7l0,1.9h1.5v-1.9c1.1-0.1,2.1-0.4,2.9-0.9    C38,39.4,38.7,36.8,37.8,34.3z M31.3,30.6c-1.2-0.6-2.1-0.8-2.1-2.3c0-0.7,0.2-1.8,2.1-2.2V30.6z M32.8,39.3v-5.2    c2.4,0.8,2.5,1.8,2.5,2.5C35.3,37.3,35.2,38.8,32.8,39.3z"/><path class="st49" d="M10.1,34.1c0-13.3,10.7-24,24-24c6.1,0,11.7,2.3,15.9,6C45.6,11.1,39.2,8,32,8C18.7,8,8,18.7,8,32    c0,7.2,3.1,13.6,8.1,18C12.3,45.7,10.1,40.2,10.1,34.1z"/><path class="st5" d="M47.9,14c3.8,4.2,6,9.8,6,15.9c0,13.3-10.7,24-24,24c-6.1,0-11.7-2.3-15.9-6c4.4,5,10.8,8.1,18,8.1    c13.3,0,24-10.7,24-24C56,24.8,52.9,18.4,47.9,14z"/><g class="st50"><path class="st3" d="M45.9,12.5L12.5,45.9c-0.3-0.5-0.7-1-1-1.5v0l33-33h0C45,11.8,45.4,12.1,45.9,12.5z"/><path class="st3" d="M52.5,19.6l-33,33c-1.6-1-3-2.1-4.4-3.4l33.9-33.9C50.4,16.5,51.6,18,52.5,19.6z"/></g><path class="st19" d="M37.8,33.6c-0.2-0.6-1-2.5-5-3.3v-4.9c1,0.3,1.6,1,1.9,2c0.2,0.8,0.7,1.2,1.5,1.2c0.4,0,2.9-0.7,0.4-3.9    c-0.4-0.5-1.2-1.4-3.7-1.7v-2h-1.5v2c-4.6,0.5-5,3.5-5,4.8c0,4,4,4.8,5,5.1v5.5c-1.9-0.5-2.3-2.4-2.5-3.1c-0.3-0.9-1.1-1-1.4-1    c-1.2,0.1-1.5,1.1-1.5,1.5c0,0.5,0.3,2.9,3.1,4.3c0.7,0.4,1.5,0.6,2.4,0.7l0,1.9h1.5v-1.9c1.1-0.1,2.1-0.4,2.9-0.9    C38,38.7,38.7,36.1,37.8,33.6z M31.3,29.9c-1.2-0.6-2.1-0.8-2.1-2.3c0-0.7,0.2-1.8,2.1-2.2V29.9z M32.8,38.6v-5.2    c2.4,0.8,2.5,1.8,2.5,2.5C35.3,36.6,35.2,38.1,32.8,38.6z"/><polygon class="st3" points="40.3,22.5 36.3,21.2 40.3,19.8 41.7,15.7 43,19.8 47.1,21.2 43,22.5 41.7,26.6   "/><polygon class="st3" points="46.3,27.4 44,26.6 46.3,25.8 47.1,23.5 47.9,25.8 50.2,26.6 47.9,27.4 47.1,29.7   "/></g></g></svg>